<svg xmlns="http://www.w3.org/2000/svg" viewBox="0 0 261.77 57.53"><defs><style>.cls-1{fill:#b8d133;}.cls-2{fill:#9aaf3b;}.cls-3{fill:#fbab19;}</style></defs><title>findFood</title><g id="Layer_2" data-name="Layer 2"><g id="Layer_1-2" data-name="Layer 1"><path class="cls-1" d="M27.24,6.86C29,4.44,35.84.59,38.57,0A18,18,0,0,1,37.2,13.27a6.49,6.49,0,0,1-3.86,3.2,5.88,5.88,0,0,1-4.74-.58A6.18,6.18,0,0,1,27.24,6.86Z"/><path class="cls-2" d="M38.57,0A18,18,0,0,1,37.2,13.27a6.49,6.49,0,0,1-3.86,3.2,5.88,5.88,0,0,1-4.74-.58"/><path class="cls-3" d="M22.43,13.47a3.86,3.86,0,0,1-.67,1.63,2.34,2.34,0,0,1-1.63,1.1,1.73,1.73,0,0,1-.86-.17,2.37,2.37,0,0,0-.82-.22,15.61,15.61,0,0,0-4.13,1.39,23.22,23.22,0,0,0-5.14,2.74v8.78q.24-.1,2.26-1.34a5.16,5.16,0,0,1,2.16-.86q.86,0,3.22,2.69t2.26,3.65a3,3,0,0,1-1,1.73,3.18,3.18,0,0,1-1.34.86,1.09,1.09,0,0,1-.77-.12,2,2,0,0,0-.67-.22.52.52,0,0,0-.29.1q-1.39.58-2.45,1.06a13.12,13.12,0,0,0-3.41,2v7a1.74,1.74,0,0,0,.5,1,2,2,0,0,1,.5,1.27,3,3,0,0,1-2.54,3.22A22.64,22.64,0,0,1,3.09,48Q1,46.35,1,45.1V13.37a2.73,2.73,0,0,0-.55-1.56Q-.08,11,0,10.63A2.68,2.68,0,0,1,.93,9.17a3,3,0,0,1,1.73-.79A8,8,0,0,1,5.29,9.75a12,12,0,0,0,2.93,1.56L13.5,9.15A10,10,0,0,1,15.66,8q1.2-.14,4,2.14T22.43,13.47Z"/><path class="cls-3" d="M34.29,47.64a1.76,1.76,0,0,1-1.2,2.16,3.7,3.7,0,0,1-.67,0,16.21,16.21,0,0,1-4.27-.72q-2.74-.77-3.22-1.63-.24-.38.43-1.49a5.6,5.6,0,0,0,.43-2.64V23.21a10.35,10.35,0,0,1-.58-2.45q0-.62,1.78-.62A13.3,13.3,0,0,1,31,21a7.78,7.78,0,0,1,3.1,1.56.78.78,0,0,1,.14.48,4.06,4.06,0,0,1-.55,1.44,3.92,3.92,0,0,0-.55,1.58v19.3a2.16,2.16,0,0,0,.55,1.2A2.85,2.85,0,0,1,34.29,47.64Z"/><path class="cls-3" d="M60.78,45.53a4.67,4.67,0,0,1,.38,1.82,2,2,0,0,1-1.1,2,3.43,3.43,0,0,1-1.2.14A18.2,18.2,0,0,1,55,49a6.78,6.78,0,0,1-2.74-1,1,1,0,0,1-.24-.62,4,4,0,0,1,.72-1.7,4,4,0,0,0,.72-1.7q.1-18.91-.29-19.06-.67-.24-3.31,4.32-2.78,4.8-2.78,7.25v9A2.09,2.09,0,0,1,47.68,47,2.48,2.48,0,0,1,46,49.47a1.35,1.35,0,0,1-.58.1,17.75,17.75,0,0,1-3.79-.6,7.19,7.19,0,0,1-2.78-1,1.4,1.4,0,0,1-.29-.86A2,2,0,0,1,39.16,46a2.28,2.28,0,0,0,.55-.86V22.78a2.11,2.11,0,0,0-.38-1,1.27,1.27,0,0,1-.24-1.06,1.84,1.84,0,0,1,1.49-1.3,10.11,10.11,0,0,1,3.6.53q3.07.77,3.36,1.58a2.63,2.63,0,0,1-.14,1.58A13.27,13.27,0,0,0,46.86,25a3.92,3.92,0,0,0,.19,1.15,15,15,0,0,1,2-4.27q1.58-2.26,3.17-2.26a11.25,11.25,0,0,1,4.22,1.13q2.59,1.13,3,2Q60.78,25.9,60.78,45.53Z"/><path class="cls-3" d="M87.66,11.69a4.63,4.63,0,0,1-.36,1.87,10.9,10.9,0,0,0-.46,1.58v31.3a4.73,4.73,0,0,0,.24,2q.72,1.25.43,1.68t-1.25.38A19.77,19.77,0,0,1,82.91,50q-2.54-.53-2.69-.53A1.52,1.52,0,0,1,79,48.36a2.14,2.14,0,0,1,0-.62,47.57,47.57,0,0,1,.53-5.86q-1.15,2.3-2.26,4.61-1.58,2.83-2.83,2.59-9.46-1.92-9.46-11.62a23.89,23.89,0,0,1,3-11.23q2.93-5.52,6.43-7.2a2,2,0,0,1,.91-.24q1.2,0,4.18,3V12.46A7,7,0,0,0,79,11.09a4.54,4.54,0,0,1-.38-1.46q0-1,1.34-1a13.24,13.24,0,0,1,3.46.67q1.44.48,2.83.91A1.77,1.77,0,0,1,87.66,11.69ZM79.31,24.07q-2.69,1.2-4.87,5.28a16.21,16.21,0,0,0-2.18,7.58q0,4.08,3.17,4.46Q77.1,41.59,79.31,24.07Z"/><path class="cls-3" d="M101,47.64a1.76,1.76,0,0,1-1.2,2.16,3.7,3.7,0,0,1-.67,0,16.21,16.21,0,0,1-4.27-.72q-2.74-.77-3.22-1.63-.24-.38.43-1.49a5.6,5.6,0,0,0,.43-2.64V23.21a10.35,10.35,0,0,1-.58-2.45q0-.62,1.78-.62a13.3,13.3,0,0,1,4,.89,7.78,7.78,0,0,1,3.1,1.56.78.78,0,0,1,.14.48,4.06,4.06,0,0,1-.55,1.44,3.92,3.92,0,0,0-.55,1.58v19.3a2.16,2.16,0,0,0,.55,1.2A2.85,2.85,0,0,1,101,47.64Zm.14-33.17a1,1,0,0,1,0,.38,11.51,11.51,0,0,1-.43,2.74q-.48,1.82-.91,2t-4.13-1Q92,17.35,91.79,16.83a1.43,1.43,0,0,1-.14-.72,6.47,6.47,0,0,1,.67-2.74q.77-1.63,1.73-1.82a8.74,8.74,0,0,1,3.84.84Q100.62,13.42,101.1,14.47Z"/><path class="cls-3" d="M127.45,45.53a4.67,4.67,0,0,1,.38,1.82,2,2,0,0,1-1.1,2,3.43,3.43,0,0,1-1.2.14,18.2,18.2,0,0,1-3.89-.5,6.78,6.78,0,0,1-2.74-1,1,1,0,0,1-.24-.62,4,4,0,0,1,.72-1.7,4,4,0,0,0,.72-1.7q.1-18.91-.29-19.06-.67-.24-3.31,4.32-2.78,4.8-2.78,7.25v9a2.09,2.09,0,0,1,.62,1.54,2.48,2.48,0,0,1-1.63,2.5,1.35,1.35,0,0,1-.58.1,17.75,17.75,0,0,1-3.79-.6,7.19,7.19,0,0,1-2.78-1,1.4,1.4,0,0,1-.29-.86,2,2,0,0,1,.55-1.15,2.28,2.28,0,0,0,.55-.86V22.78a2.11,2.11,0,0,0-.38-1,1.27,1.27,0,0,1-.24-1.06,1.84,1.84,0,0,1,1.49-1.3,10.11,10.11,0,0,1,3.6.53q3.07.77,3.36,1.58a2.63,2.63,0,0,1-.14,1.58,13.27,13.27,0,0,0-.53,1.92,3.92,3.92,0,0,0,.19,1.15,15,15,0,0,1,2-4.27q1.58-2.26,3.17-2.26a11.25,11.25,0,0,1,4.22,1.13q2.59,1.13,3,2Q127.45,25.9,127.45,45.53Z"/><path class="cls-3" d="M152.27,23.21a10.29,10.29,0,0,1-.53,1,2.6,2.6,0,0,0-.34,1.06v21q0,8-5.9,10.22a14,14,0,0,1-5,1.06,8.09,8.09,0,0,1-5.66-2.21,26.39,26.39,0,0,1-2.3-2.5l-.91-.91a1.87,1.87,0,0,1-.53-1.1q0-.72,1.44-1.15a2.54,2.54,0,0,1,.58,0,9.13,9.13,0,0,1,2.52.43,4.94,4.94,0,0,1,2.09,1.06l1.58,2a2.74,2.74,0,0,0,1.92,1.1q2,.19,2.54-2.69a28.32,28.32,0,0,0,.29-4.94l-.91,1.25a6,6,0,0,1-1,1.1,1.63,1.63,0,0,1-1.1.48A6.59,6.59,0,0,1,136.76,48q-5.14-4.32-5.14-12.72a20,20,0,0,1,2.26-9.55Q136.23,21.19,140,20a1.69,1.69,0,0,1,.53-.1,3,3,0,0,1,1.73.72q.82.62,1.63,1.3.29-.82.6-1.61a1.25,1.25,0,0,1,1-.89,9.79,9.79,0,0,1,3.58.65q2.57.79,2.9,1.37A2,2,0,0,1,152.27,23.21ZM143.77,35a49,49,0,0,0,.38-5.42q0-3.89-1.25-4.37-1-.38-2.45,3.41A19.66,19.66,0,0,0,139,35.55a25.25,25.25,0,0,0,1.3,9A21.94,21.94,0,0,0,143.77,35Z"/><path class="cls-3" d="M188,13.47a3.86,3.86,0,0,1-.67,1.63,2.34,2.34,0,0,1-1.63,1.1,1.73,1.73,0,0,1-.86-.17,2.37,2.37,0,0,0-.82-.22,15.61,15.61,0,0,0-4.13,1.39,23.22,23.22,0,0,0-5.14,2.74v8.78q.24-.1,2.26-1.34a5.16,5.16,0,0,1,2.16-.86q.86,0,3.22,2.69t2.26,3.65a3,3,0,0,1-1,1.73,3.18,3.18,0,0,1-1.34.86,1.09,1.09,0,0,1-.77-.12,2,2,0,0,0-.67-.22.52.52,0,0,0-.29.1q-1.39.58-2.45,1.06a13.12,13.12,0,0,0-3.41,2v7a1.74,1.74,0,0,0,.5,1,2,2,0,0,1,.5,1.27,3,3,0,0,1-2.54,3.22A22.65,22.65,0,0,1,168.63,48q-2.06-1.68-2.06-2.93V13.37a2.73,2.73,0,0,0-.55-1.56q-.55-.79-.46-1.18a2.67,2.67,0,0,1,.91-1.46,3,3,0,0,1,1.73-.79,8,8,0,0,1,2.64,1.37,12,12,0,0,0,2.93,1.56l5.28-2.16A10,10,0,0,1,181.21,8q1.2-.14,4,2.14T188,13.47Z"/><path class="cls-3" d="M204,21.1q2.64,1.25,4.08,5a23.22,23.22,0,0,1,1.3,8.16,26.46,26.46,0,0,1-2.21,11.23q-2.45,5.09-6.1,4.61-1.34-.34-4-.82a21.22,21.22,0,0,1-3.55-.72q-2.74-.72-4.37-4.66a22.52,22.52,0,0,1-1.49-8.54,25,25,0,0,1,1.54-9A11.63,11.63,0,0,1,194,20.23a3,3,0,0,1,1.44-.29,22.27,22.27,0,0,1,3.79.62A28.08,28.08,0,0,1,204,21.1Zm-5.38,4.32q-1.3,0-2.4,3.14a18.16,18.16,0,0,0-1.1,6,28.73,28.73,0,0,0,.82,6.82q.91,3.65,2.11,3.94,1.54.34,2.74-3.46a26.66,26.66,0,0,0,1.15-8.06,19.19,19.19,0,0,0-.62-4.85Q200.41,25.42,198.59,25.42Z"/><path class="cls-3" d="M229.79,21.1q2.64,1.25,4.08,5a23.22,23.22,0,0,1,1.3,8.16A26.45,26.45,0,0,1,233,45.53q-2.45,5.09-6.1,4.61-1.34-.34-4-.82a21.19,21.19,0,0,1-3.55-.72q-2.74-.72-4.37-4.66a22.52,22.52,0,0,1-1.49-8.54,25,25,0,0,1,1.54-9,11.63,11.63,0,0,1,4.85-6.19,3,3,0,0,1,1.44-.29,22.27,22.27,0,0,1,3.79.62A28.06,28.06,0,0,1,229.79,21.1Zm-5.38,4.32q-1.3,0-2.4,3.14a18.16,18.16,0,0,0-1.1,6,28.73,28.73,0,0,0,.82,6.82q.91,3.65,2.11,3.94,1.54.34,2.74-3.46a26.69,26.69,0,0,0,1.15-8.06A19.24,19.24,0,0,0,227.1,29Q226.24,25.42,224.41,25.42Z"/><path class="cls-3" d="M261.75,11.69a4.62,4.62,0,0,1-.36,1.87,10.83,10.83,0,0,0-.46,1.58v31.3a4.72,4.72,0,0,0,.24,2q.72,1.25.43,1.68t-1.25.38A19.77,19.77,0,0,1,257,50q-2.54-.53-2.69-.53a1.52,1.52,0,0,1-1.25-1.15,2.14,2.14,0,0,1,0-.62,47.65,47.65,0,0,1,.53-5.86q-1.15,2.3-2.26,4.61-1.58,2.83-2.83,2.59Q239,47.16,239,37.47a23.9,23.9,0,0,1,3-11.23q2.93-5.52,6.43-7.2a2,2,0,0,1,.91-.24q1.2,0,4.18,3V12.46a7,7,0,0,0-.43-1.37,4.53,4.53,0,0,1-.38-1.46q0-1,1.34-1a13.23,13.23,0,0,1,3.46.67q1.44.48,2.83.91A1.77,1.77,0,0,1,261.75,11.69ZM253.4,24.07q-2.69,1.2-4.87,5.28a16.22,16.22,0,0,0-2.18,7.58q0,4.08,3.17,4.46Q251.19,41.59,253.4,24.07Z"/></g></g></svg>